<svg width="39" height="40" viewBox="0 0 39 40" fill="none" xmlns="http://www.w3.org/2000/svg">
<path fill-rule="evenodd" clip-rule="evenodd" d="M19.5 40C30.2696 40 39 31.0457 39 20C39 8.9543 30.2696 0 19.5 0C8.73045 0 0 8.9543 0 20C0 31.0457 8.73045 40 19.5 40ZM11 13C12.6569 13 14 11.6569 14 10C14 8.34315 12.6569 7 11 7C9.34315 7 8 8.34315 8 10C8 11.6569 9.34315 13 11 13ZM28 33C28 34.1046 27.1046 35 26 35C24.8954 35 24 34.1046 24 33C24 31.8954 24.8954 31 26 31C27.1046 31 28 31.8954 28 33ZM18 18C19.1046 18 20 17.1046 20 16C20 14.8954 19.1046 14 18 14C16.8954 14 16 14.8954 16 16C16 17.1046 16.8954 18 18 18ZM32 29C32 29.5523 31.5523 30 31 30C30.4477 30 30 29.5523 30 29C30 28.4477 30.4477 28 31 28C31.5523 28 32 28.4477 32 29ZM9 27C11.7614 27 14 24.7614 14 22C14 19.2386 11.7614 17 9 17C6.23858 17 4 19.2386 4 22C4 24.7614 6.23858 27 9 27Z" fill="#C3C7DA"/>
</svg>
