<svg width="47" height="43" viewBox="0 0 47 43" fill="none" xmlns="http://www.w3.org/2000/svg">
<ellipse cx="27.5" cy="20" rx="19.5" ry="20" fill="#FCFF63"/>
<g filter="url(#filter0_d_503_2)">
<path d="M39 31.8078C39 27.2944 35.1578 23.6156 30.4439 23.6156C28.9587 23.6156 27.5381 23.9866 26.3112 24.6358C24.6646 20.1841 20.209 17 15.0108 17C8.35964 17 3 22.1317 3 28.5C3 32.9825 5.67982 36.8468 9.55426 38.7325C11.0395 39.5363 12.7184 39.9691 14.5265 39.9691H31.4126C32.6395 39.9691 33.7695 39.5672 34.6413 38.918C37.2565 37.5269 39 34.8683 39 31.8078Z" fill="white"/>
</g>
<defs>
<filter id="filter0_d_503_2" x="0" y="12" width="44" height="31" filterUnits="userSpaceOnUse" color-interpolation-filters="sRGB">
<feFlood flood-opacity="0" result="BackgroundImageFix"/>
<feColorMatrix in="SourceAlpha" type="matrix" values="0 0 0 0 0 0 0 0 0 0 0 0 0 0 0 0 0 0 127 0" result="hardAlpha"/>
<feOffset dx="1" dy="-1"/>
<feGaussianBlur stdDeviation="2"/>
<feColorMatrix type="matrix" values="0 0 0 0 0 0 0 0 0 0 0 0 0 0 0 0 0 0 0.05 0"/>
<feBlend mode="normal" in2="BackgroundImageFix" result="effect1_dropShadow_503_2"/>
<feBlend mode="normal" in="SourceGraphic" in2="effect1_dropShadow_503_2" result="shape"/>
</filter>
</defs>
</svg>
