<svg width="58" height="37" viewBox="0 0 58 37" fill="none" xmlns="http://www.w3.org/2000/svg">
<path d="M58 12.249C58 8.51548 54.7982 5.47241 50.87 5.47241C49.6323 5.47241 48.4484 5.77927 47.426 6.31629C46.0538 2.63392 42.3408 0 38.009 0C32.4664 0 28 4.24495 28 9.51279C28 13.2207 30.2332 16.4172 33.4619 17.9771C34.6996 18.642 36.0987 19 37.6054 19H51.6771C52.6996 19 53.6413 18.6676 54.3677 18.1306C56.5471 16.9798 58 14.7806 58 12.249Z" fill="#C3C7DA"/>
<path d="M55 24.5639C55 17.6864 49.13 12.0808 41.9283 12.0808C39.6592 12.0808 37.4888 12.646 35.6143 13.6353C33.0987 6.85195 26.2915 2 18.3498 2C8.18834 2 0 9.81965 0 19.5236C0 26.354 4.09417 32.2423 10.0135 35.1157C12.2825 36.3405 14.8475 37 17.6099 37H43.4081C45.2825 37 47.009 36.3876 48.3408 35.3984C52.3363 33.2786 55 29.2275 55 24.5639Z" fill="white"/>
</svg>
