<svg width="55" height="56" viewBox="0 0 55 56" fill="none" xmlns="http://www.w3.org/2000/svg">
<path d="M55 22.5639C55 15.6864 49.13 10.0808 41.9283 10.0808C39.6592 10.0808 37.4888 10.646 35.6143 11.6353C33.0987 4.85195 26.2915 0 18.3498 0C8.18834 0 0 7.81965 0 17.5236C0 24.354 4.09417 30.2423 10.0135 33.1157C12.2825 34.3405 14.8475 35 17.6099 35H43.4081C45.2825 35 47.009 34.3876 48.3408 33.3984C52.3363 31.2786 55 27.2275 55 22.5639Z" fill="white"/>
<path fill-rule="evenodd" clip-rule="evenodd" d="M18.5778 43.2581L16.9967 40L15.4025 43.2852C15.1498 43.6387 15 44.0786 15 44.5556C15 45.7215 15.8954 46.6667 17 46.6667C18.1046 46.6667 19 45.7215 19 44.5556C19 44.0664 18.8424 43.6161 18.5778 43.2581Z" fill="#50FAFA"/>
<path fill-rule="evenodd" clip-rule="evenodd" d="M27.5778 52.2581L25.9967 49L24.4025 52.2852C24.1498 52.6387 24 53.0786 24 53.5556C24 54.7215 24.8954 55.6667 26 55.6667C27.1046 55.6667 28 54.7215 28 53.5556C28 53.0664 27.8424 52.6161 27.5778 52.2581Z" fill="#50FAFA"/>
<path fill-rule="evenodd" clip-rule="evenodd" d="M35.5778 43.2581L33.9967 40L32.4025 43.2852C32.1498 43.6387 32 44.0786 32 44.5556C32 45.7215 32.8954 46.6667 34 46.6667C35.1046 46.6667 36 45.7215 36 44.5556C36 44.0664 35.8424 43.6161 35.5778 43.2581Z" fill="#50FAFA"/>
</svg>
