<svg width="55" height="63" viewBox="0 0 55 63" fill="none" xmlns="http://www.w3.org/2000/svg">
<path fill-rule="evenodd" clip-rule="evenodd" d="M49.1835 6.98122C45.2795 0.219357 36.4926 -2.01628 29.5573 1.98779C22.6221 5.99185 20.1648 14.7194 24.0687 21.4812C27.9727 28.2431 36.7596 30.4787 43.6949 26.4747C50.6301 22.4706 53.0874 13.7431 49.1835 6.98122ZM35.3123 22.1056C34.7117 21.0653 33.3815 20.7089 32.3412 21.3095C31.3009 21.9101 30.9445 23.2403 31.5451 24.2806C32.1457 25.3209 33.4759 25.6773 34.5162 25.0767C35.5565 24.4761 35.9129 23.1459 35.3123 22.1056ZM41.7071 4.18184C42.4007 3.78143 43.2875 4.01905 43.6879 4.71257C44.0883 5.4061 43.8507 6.2929 43.1571 6.69331C42.4636 7.09372 41.5768 6.8561 41.1764 6.16258C40.776 5.46905 41.0136 4.58224 41.7071 4.18184ZM35.9141 15.898C35.5137 15.2045 34.6269 14.9669 33.9334 15.3673C33.2399 15.7677 33.0022 16.6545 33.4026 17.348C33.803 18.0415 34.6899 18.2792 35.3834 17.8788C36.0769 17.4784 36.3145 16.5915 35.9141 15.898ZM37.7457 3.12036C38.0924 2.92016 38.5358 3.03897 38.736 3.38573C38.9362 3.7325 38.8174 4.1759 38.4707 4.3761C38.1239 4.5763 37.6805 4.4575 37.4803 4.11073C37.2801 3.76397 37.3989 3.32057 37.7457 3.12036ZM44.8274 18.2863C43.8264 16.5525 41.6094 15.9585 39.8756 16.9595C38.1418 17.9605 37.5477 20.1775 38.5487 21.9113C39.5498 23.6451 41.7668 24.2392 43.5006 23.2382C45.2344 22.2372 45.8284 20.0201 44.8274 18.2863Z" fill="#C3C7DA"/>
<path d="M55 29.3017C55 22.4242 49.13 16.8185 41.9283 16.8185C39.6592 16.8185 37.4888 17.3838 35.6143 18.3731C33.0987 11.5897 26.2915 6.73779 18.3498 6.73779C8.18834 6.73779 0 14.5574 0 24.2613C0 31.0918 4.09417 36.9801 10.0135 39.8535C12.2825 41.0783 14.8475 41.7378 17.6099 41.7378H43.4081C45.2825 41.7378 47.009 41.1254 48.3408 40.1362C52.3363 38.0164 55 33.9652 55 29.3017Z" fill="white"/>
<path fill-rule="evenodd" clip-rule="evenodd" d="M18.5778 49.9959L16.9967 46.7378L15.4025 50.023C15.1498 50.3765 15 50.8164 15 51.2933C15 52.4593 15.8954 53.4045 17 53.4045C18.1046 53.4045 19 52.4593 19 51.2933C19 50.8042 18.8424 50.3539 18.5778 49.9959Z" fill="#50FAFA"/>
<path fill-rule="evenodd" clip-rule="evenodd" d="M27.5778 58.9959L25.9967 55.7378L24.4025 59.023C24.1498 59.3765 24 59.8164 24 60.2933C24 61.4593 24.8954 62.4045 26 62.4045C27.1046 62.4045 28 61.4593 28 60.2933C28 59.8042 27.8424 59.3539 27.5778 58.9959Z" fill="#50FAFA"/>
<path fill-rule="evenodd" clip-rule="evenodd" d="M35.5778 49.9959L33.9967 46.7378L32.4025 50.023C32.1498 50.3765 32 50.8164 32 51.2933C32 52.4593 32.8954 53.4045 34 53.4045C35.1046 53.4045 36 52.4593 36 51.2933C36 50.8042 35.8424 50.3539 35.5778 49.9959Z" fill="#50FAFA"/>
</svg>
