<svg xmlns="http://www.w3.org/2000/svg" viewBox="0 0 91.54 70.72"><polygon points="21.05 24.98 22.79 25.06 23.84 23.67 24.3 25.35 25.95 25.92 24.49 26.88 24.46 28.62 23.1 27.53 21.44 28.04 22.05 26.41 21.05 24.98" style="fill:#fff"/><polygon points="44.12 16.47 45.12 17.57 46.59 17.36 45.86 18.65 46.51 19.99 45.05 19.69 43.98 20.72 43.81 19.25 42.51 18.55 43.86 17.93 44.12 16.47" style="fill:#fff"/><polygon points="45.28 29.41 45.71 29.87 46.34 29.78 46.02 30.33 46.3 30.9 45.68 30.77 45.23 31.21 45.16 30.59 44.6 30.29 45.17 30.03 45.28 29.41" style="fill:#fff"/><polygon points="81.22 34.29 82.76 34.35 83.69 33.13 84.1 34.61 85.55 35.12 84.27 35.96 84.24 37.5 83.04 36.54 81.56 36.99 82.1 35.55 81.22 34.29" style="fill:#fff"/><path d="M19.14,61.33a12,12,0,0,1-3.15,7,8.71,8.71,0,0,1-6.4,2.41A7.81,7.81,0,0,1,2.36,66.6Q0,62.48,0,54q0-8.82,2.48-13a8.31,8.31,0,0,1,7.69-4.15,8.29,8.29,0,0,1,5.9,2.06,11.15,11.15,0,0,1,3,6.28l-5.85,2a8.59,8.59,0,0,0-1-3.82,2.45,2.45,0,0,0-2.2-1.2c-1.29,0-2.2.85-2.74,2.54s-.8,4.79-.8,9.3c0,4.35.26,7.35.77,9s1.4,2.44,2.64,2.44a2.52,2.52,0,0,0,2.24-1.51,12.58,12.58,0,0,0,1.18-4.54Z" style="fill:#fff"/><path d="M22.84,70.07V37.51h5.81V70.07Z" style="fill:#fff"/><path d="M33.72,40.51a3.23,3.23,0,0,1,.94-2.32,3,3,0,0,1,2.29-1,3.24,3.24,0,0,1,3.29,3.29,3.07,3.07,0,0,1-1,2.29,3.23,3.23,0,0,1-2.31.93,3.3,3.3,0,0,1-3.23-3.22Zm.38,29.56V46h5.8v24Z" style="fill:#fff"/><path d="M45.27,70V46H50.8v3.83a9.5,9.5,0,0,1,2.45-3.28,5,5,0,0,1,3.15-1,4.45,4.45,0,0,1,3.14,1.1,4.31,4.31,0,0,1,1.33,3,7.22,7.22,0,0,1,2.21-3.06,5.16,5.16,0,0,1,3.2-1,4,4,0,0,1,3.59,1.57c.7,1,1,2.94,1,5.7V70H65.08V55a9.74,9.74,0,0,0-.43-3.47,1.49,1.49,0,0,0-1.45-1,1.76,1.76,0,0,0-1.66,1A7.42,7.42,0,0,0,61,54.86V70H55.19V55a9.8,9.8,0,0,0-.42-3.47,1.49,1.49,0,0,0-1.45-1,1.76,1.76,0,0,0-1.66,1,7.42,7.42,0,0,0-.54,3.25V70Z" style="fill:#fff"/><path d="M85.69,70.07v-4.6a9,9,0,0,1-2,3.63,3.84,3.84,0,0,1-2.83,1.22q-2.83,0-4.32-3.17T75.08,58q0-6.26,1.39-9.33c.92-2,2.32-3.07,4.19-3.07a4.21,4.21,0,0,1,3.07,1.21,8.77,8.77,0,0,1,2,3.79V46h5.85v24ZM86,57.84a16.26,16.26,0,0,0-.63-5.17c-.42-1.19-1-1.78-1.86-1.78s-1.48.56-1.86,1.69a18.54,18.54,0,0,0-.58,5.53,17.36,17.36,0,0,0,.59,5.26c.38,1.14,1,1.71,1.81,1.71s1.49-.59,1.91-1.78A17.61,17.61,0,0,0,86,57.84Z" style="fill:#fff"/><path d="M62.8,36.07a6.86,6.86,0,0,1-1.94,3.75,5.24,5.24,0,0,1-3.64,1.27A5.1,5.1,0,0,1,52.7,39q-1.46-2.1-1.45-6.57c0-3.06.49-5.31,1.45-6.75a5.1,5.1,0,0,1,4.55-2.16,5.2,5.2,0,0,1,4.42,2,9.54,9.54,0,0,1,1.5,5.84v1.73H55.25v.24a9,9,0,0,0,.47,3.44,1.56,1.56,0,0,0,1.5,1.06,1.46,1.46,0,0,0,1.22-.66,4.13,4.13,0,0,0,.63-1.93Zm-7.55-5.69h4a6.44,6.44,0,0,0-.51-2.88,1.65,1.65,0,0,0-1.54-.91,1.54,1.54,0,0,0-1.43.95A6.76,6.76,0,0,0,55.25,30.38Z" style="fill:#fff"/><path d="M66,40.69V17.87h4.07V40.69Z" style="fill:#fff"/><path d="M24.22,1l0-.1-.4.17-.13-.3A1.23,1.23,0,0,0,23,.08a.88.88,0,0,0-.76,0,1.06,1.06,0,0,0-.51.62,1.43,1.43,0,0,0-.06.65,1.89,1.89,0,0,0,.09.34l.11.26A19.47,19.47,0,0,0,11.32,21.57,20.54,20.54,0,0,0,12,25.16l.24-.11a7.86,7.86,0,0,1,7.3-6.81,2.23,2.23,0,0,1,.37,0,6.75,6.75,0,0,1,1.36.14c.19,0,.38.06.56.11a6.66,6.66,0,0,1,1.43.6,6.84,6.84,0,0,1,.65.37,8.2,8.2,0,0,1,3.17-4.42l5.82,14.48c1,2.23,3.1,3.45,5,2.84l.24-.1.07,0,.22-.14a5.12,5.12,0,0,0,1.44-6.05.24.24,0,0,0,0,.08l0-.12a1.14,1.14,0,0,0-.58-.6.91.91,0,0,0-.79,0A1.22,1.22,0,0,0,38,27l0,.1A.21.21,0,0,1,38,27a3.83,3.83,0,0,1,.19.72,2.44,2.44,0,0,1-.87,2.4,2.23,2.23,0,0,1-2.58-1.6L29,14.12a7.11,7.11,0,0,1,2-.4,7.35,7.35,0,0,1,2.78.46,1.33,1.33,0,0,1,0,.19l.07-.15.12,0A8.07,8.07,0,0,1,35,12,6.95,6.95,0,0,1,45.38,10.5l.24-.1C41.73,2.08,32.58-2,24.22,1Zm-.1,9.22a3.87,3.87,0,0,1,1.61-7.1,3.61,3.61,0,0,0-.33.44A3.87,3.87,0,0,0,26.58,8.9a3.8,3.8,0,0,0,2.54.57A3.85,3.85,0,0,1,24.12,10.22Z" style="fill:#fff"/><polygon points="10.57 28.27 11 28.73 11.62 28.64 11.31 29.19 11.59 29.76 10.97 29.64 10.52 30.07 10.44 29.45 9.89 29.15 10.46 28.89 10.57 28.27" style="fill:#fff"/></svg>