<svg width="47" height="43" viewBox="0 0 47 43" fill="none" xmlns="http://www.w3.org/2000/svg">
<path fill-rule="evenodd" clip-rule="evenodd" d="M27.5 40C38.2696 40 47 31.0457 47 20C47 8.9543 38.2696 0 27.5 0C16.7304 0 8 8.9543 8 20C8 31.0457 16.7304 40 27.5 40ZM19 13C20.6569 13 22 11.6569 22 10C22 8.34315 20.6569 7 19 7C17.3431 7 16 8.34315 16 10C16 11.6569 17.3431 13 19 13ZM36 33C36 34.1046 35.1046 35 34 35C32.8954 35 32 34.1046 32 33C32 31.8954 32.8954 31 34 31C35.1046 31 36 31.8954 36 33ZM26 18C27.1046 18 28 17.1046 28 16C28 14.8954 27.1046 14 26 14C24.8954 14 24 14.8954 24 16C24 17.1046 24.8954 18 26 18ZM40 29C40 29.5523 39.5523 30 39 30C38.4477 30 38 29.5523 38 29C38 28.4477 38.4477 28 39 28C39.5523 28 40 28.4477 40 29ZM17 27C19.7614 27 22 24.7614 22 22C22 19.2386 19.7614 17 17 17C14.2386 17 12 19.2386 12 22C12 24.7614 14.2386 27 17 27Z" fill="#C3C7DA"/>
<g filter="url(#filter0_d_512_18)">
<path d="M39 31.8078C39 27.2944 35.1578 23.6156 30.4439 23.6156C28.9587 23.6156 27.5381 23.9866 26.3112 24.6358C24.6646 20.1841 20.209 17 15.0108 17C8.35964 17 3 22.1317 3 28.5C3 32.9825 5.67982 36.8468 9.55426 38.7325C11.0395 39.5363 12.7184 39.9691 14.5265 39.9691H31.4126C32.6395 39.9691 33.7695 39.5672 34.6413 38.918C37.2565 37.5269 39 34.8683 39 31.8078Z" fill="white"/>
</g>
<defs>
<filter id="filter0_d_512_18" x="0" y="12" width="44" height="31" filterUnits="userSpaceOnUse" color-interpolation-filters="sRGB">
<feFlood flood-opacity="0" result="BackgroundImageFix"/>
<feColorMatrix in="SourceAlpha" type="matrix" values="0 0 0 0 0 0 0 0 0 0 0 0 0 0 0 0 0 0 127 0" result="hardAlpha"/>
<feOffset dx="1" dy="-1"/>
<feGaussianBlur stdDeviation="2"/>
<feColorMatrix type="matrix" values="0 0 0 0 0 0 0 0 0 0 0 0 0 0 0 0 0 0 0.05 0"/>
<feBlend mode="normal" in2="BackgroundImageFix" result="effect1_dropShadow_512_18"/>
<feBlend mode="normal" in="SourceGraphic" in2="effect1_dropShadow_512_18" result="shape"/>
</filter>
</defs>
</svg>
