<svg width="55" height="62" viewBox="0 0 55 62" fill="none" xmlns="http://www.w3.org/2000/svg">
<ellipse cx="39.5" cy="14" rx="13.5" ry="14" fill="#FCFF63"/>
<path d="M55 28.5639C55 21.6864 49.13 16.0808 41.9283 16.0808C39.6592 16.0808 37.4888 16.646 35.6143 17.6353C33.0987 10.852 26.2915 6 18.3498 6C8.18834 6 0 13.8196 0 23.5236C0 30.354 4.09417 36.2423 10.0135 39.1157C12.2825 40.3405 14.8475 41 17.6099 41H43.4081C45.2825 41 47.009 40.3876 48.3408 39.3984C52.3363 37.2786 55 33.2275 55 28.5639Z" fill="white"/>
<path fill-rule="evenodd" clip-rule="evenodd" d="M18.5778 49.2581L16.9967 46L15.4025 49.2852C15.1498 49.6387 15 50.0786 15 50.5556C15 51.7215 15.8954 52.6667 17 52.6667C18.1046 52.6667 19 51.7215 19 50.5556C19 50.0664 18.8424 49.6161 18.5778 49.2581Z" fill="#50FAFA"/>
<path fill-rule="evenodd" clip-rule="evenodd" d="M27.5778 58.2581L25.9967 55L24.4025 58.2852C24.1498 58.6387 24 59.0786 24 59.5556C24 60.7215 24.8954 61.6667 26 61.6667C27.1046 61.6667 28 60.7215 28 59.5556C28 59.0664 27.8424 58.6161 27.5778 58.2581Z" fill="#50FAFA"/>
<path fill-rule="evenodd" clip-rule="evenodd" d="M35.5778 49.2581L33.9967 46L32.4025 49.2852C32.1498 49.6387 32 50.0786 32 50.5556C32 51.7215 32.8954 52.6667 34 52.6667C35.1046 52.6667 36 51.7215 36 50.5556C36 50.0664 35.8424 49.6161 35.5778 49.2581Z" fill="#50FAFA"/>
</svg>
