<svg width="48" height="48" viewBox="0 0 48 48" fill="none" xmlns="http://www.w3.org/2000/svg">
<path d="M44.5875 36.0094C44.0344 36.9656 43.0219 37.5 41.9906 37.5C41.4761 37.5 40.9556 37.3682 40.4784 37.0898L38.1262 35.7173L38.6305 37.6195C38.9486 38.8205 38.2315 40.0542 37.0293 40.3702C36.8358 40.4229 36.6422 40.4463 36.4514 40.4463C35.4548 40.4463 34.5426 39.7813 34.2754 38.7738L32.6123 32.5001L27 29.2219L27 35.8313L31.5356 40.4137C32.4111 41.2986 32.4022 42.7219 31.518 43.5956C31.0781 44.0344 30.5062 44.25 29.9344 44.25C29.3538 44.25 28.7728 44.0273 28.3331 43.582L27 42.2348V45C27 46.6584 25.6556 48 23.9972 48C22.3387 48 20.9944 46.6584 20.9944 45L20.9943 42.2344L19.6612 43.5816C18.7873 44.4664 17.3615 44.4722 16.4765 43.5991C15.5923 42.7261 15.5836 41.3023 16.4589 40.4173L20.9946 35.8348L20.9156 29.2219L15.3028 32.4966L13.6397 38.7703C13.3727 39.7781 12.4603 40.4428 11.4637 40.4428C11.2729 40.4428 11.0794 40.4194 10.8859 40.3666C9.68398 40.0502 8.96679 38.817 9.2846 37.616L9.78888 35.7138L7.4367 37.0863C7.04154 37.3687 6.52123 37.5 6.00654 37.5C4.97435 37.5 3.96842 36.9667 3.4106 36.0112C2.57323 34.5816 3.05576 32.745 4.48873 31.9097L6.92248 30.4894L5.01654 29.973C3.8156 29.6531 3.10779 28.4156 3.4331 27.2156C3.75842 26.0156 4.99029 25.3125 6.19592 25.6312L12.375 27.3094L18.0469 24L12.375 20.6906L6.19592 22.3688C5.99801 22.4215 5.79982 22.4479 5.60482 22.4479C4.61388 22.4479 3.70451 21.7887 3.43357 20.7866C3.10779 19.5844 3.8156 18.3563 5.01654 18.0281L6.92248 17.5118L4.48873 16.0875C3.05623 15.2526 2.57342 13.4156 3.4106 11.9859C4.24357 10.5534 6.08248 10.0697 7.51779 10.9078L9.86998 12.2803L9.3656 10.3781C9.04779 9.17906 9.76873 7.94531 10.8844 7.62937C12.1781 7.30406 13.3219 8.02781 13.725 9.22594L15.3881 15.4997L20.9156 18.7781L20.9156 12.1688L16.4625 7.5825C15.5906 6.6975 15.5906 5.27344 16.4812 4.40062C17.3625 3.52406 18.7875 3.53625 19.6687 4.41844L21.0019 5.76562L20.9156 3C20.9156 1.34156 22.26 0 23.9184 0C25.5769 0 26.9212 1.34156 26.9212 3L26.9212 5.76562L28.2544 4.41844C29.1269 3.53663 30.5522 3.52491 31.4391 4.40086C32.3233 5.27386 32.332 6.69773 31.4566 7.58273L26.921 12.1652L27 18.7781L32.6128 15.5034L34.2759 9.22969C34.5942 8.03156 35.8284 7.30781 37.0303 7.63312C38.2322 7.94953 38.9494 9.18281 38.6315 10.3838L38.1273 12.2859L40.4794 10.9134C41.9119 10.0785 43.7523 10.5619 44.5866 11.9916C45.424 13.4213 44.9415 15.2578 43.5085 16.0931L41.0748 17.5134L42.9807 18.0298C44.1816 18.355 44.8904 19.5917 44.5641 20.7898C44.2927 21.792 43.3838 22.4511 42.3929 22.4511C42.1979 22.4511 41.9998 22.4247 41.8018 22.372L35.5406 20.6906L29.9531 24L35.6212 27.3075L41.804 25.6322C43.0125 25.3125 44.2406 26.0156 44.5687 27.2156C44.8943 28.4137 44.186 29.6503 42.9853 29.9756L41.0794 30.492L43.5131 31.9123C44.9437 32.7469 45.4219 34.5844 44.5875 36.0094Z" fill="#EAEBF4"/>
</svg>
